<svg xmlns="http://www.w3.org/2000/svg" viewBox="0 0 577.15 690.21"><defs><style>.cls-1,.cls-11{fill:#34a851;}.cls-2{fill:#f47621;}.cls-10,.cls-11,.cls-2{fill-rule:evenodd;}.cls-3{font-size:22.72px;font-family:Raleway-Bold, Raleway;font-weight:700;letter-spacing:0.31em;}.cls-3,.cls-9{fill:#547dbf;}.cls-4{letter-spacing:0.32em;}.cls-5{letter-spacing:0.29em;}.cls-6{letter-spacing:0.25em;}.cls-10,.cls-7{fill:#fff;}.cls-8{fill:#ffd104;}</style></defs><title>logo</title><g id="Layer_2" data-name="Layer 2"><g id="Layer_1-2" data-name="Layer 1"><path class="cls-1" d="M386.82,184.18H375.24v-4a3.4,3.4,0,0,0-2.45-3.39,95.9,95.9,0,0,0-24.55-3.15c-13.62,0-32.18,3.07-45.9,17-13.64-14.11-32.31-17-45.9-17a96.24,96.24,0,0,0-24.53,3.15,3.4,3.4,0,0,0-2.44,3.41v3.94H218a3.42,3.42,0,0,0-3.41,3.36V296.3a3.38,3.38,0,0,0,3.36,3.41,3.32,3.32,0,0,0,1.71-.45c.34-.16,34.37-18.79,81.93-6.8h.78a5.21,5.21,0,0,0,.79,0c47.67-12.1,81.72,6.5,81.93,6.8a3.4,3.4,0,0,0,4.65-1.25,3.28,3.28,0,0,0,.46-1.67V187.58A3.39,3.39,0,0,0,386.82,184.18ZM221.37,290.89V191h8.17v85.4a3.43,3.43,0,0,0,3.37,3.45h.55a149,149,0,0,1,21.3-1.71,88.61,88.61,0,0,1,29.08,4.4A125,125,0,0,0,221.37,290.89Zm162,0a125.23,125.23,0,0,0-62.55-8.41,88.47,88.47,0,0,1,29.19-4.4,149.12,149.12,0,0,1,21.41,1.68,3.41,3.41,0,0,0,3.88-2.86,4.91,4.91,0,0,0,0-.55V191h8.13Z" transform="translate(-17.04)"/><path class="cls-2" d="M175.05,475.27a9.27,9.27,0,0,1,2.94,6.94c-2.19,19-4.53,38.06-6.88,57.09h74.81c1-21.94,2.24-43.85,4.77-65.61,2.88-24.67-5.42-41.74-24.94-54-12.28-7.72-26.1-13-39.24-19.3-5.55-2.68-11.53-4.7-16.59-8.1-12.32-8.27-24.31-17-36.19-25.92-2.73-2.06-4.72-5.26-6.68-8.18-7-10.45-13.58-21.22-20.94-31.42-2.3-3.2-3-5.51-1.75-9.14a99.07,99.07,0,0,0,5.51-37.25c-.17-3.25,1.08-6.82,2.5-9.85,4.17-8.84,9.39-17.22,13-26.26,2.51-6.34-.11-10.11-6.52-12.79-.66.84-1.44,1.72-2.12,2.67-15.79,22.18-29.08,45.57-35.48,72.37-.93,3.88-3.24,7.51-3.69,11.4-.54,4.76,0,9.69.51,14.5.21,2.12,1.56,4.1,2.14,6.21,4.77,17.19,10.27,34.22,14,51.64,3.57,16.8,13.07,28.86,25.83,39.29Q147.68,452.19,175.05,475.27Z" transform="translate(-17.04)"/><path class="cls-2" d="M169.63,551.34,167.32,570c0,.06,0,.12,0,.18h77.25q.44-9.4.83-18.83Z" transform="translate(-17.04)"/><path class="cls-2" d="M374.36,551.34c.29,2.26.59,4.52.88,6.78.52,4,.95,8,1.33,12h76.88q-2.1-9.4-4.18-18.83Z" transform="translate(-17.04)"/><path class="cls-2" d="M530.64,316.38c-4.71-13.21-8.78-26.85-15.27-39.17-8.61-16.36-19.26-31.64-28.91-47.18-7.84,3.59-10.14,7.57-6.9,14.75,4,8.86,9.68,17,14.51,25.45,1.12,2,2.56,4.31,2.43,6.39-.83,13.71,1.88,26.79,6.84,39.4,1.6,4,.6,6.51-1.78,9.7-4.67,6.24-10.18,12.41-12.78,19.53-5.62,15.42-16.7,25.49-29.32,34.62-4.55,3.3-8.71,7.19-13.48,10.1-8,4.86-16,9.76-24.52,13.55-16.79,7.48-33.06,15.59-45.79,29.26-10.58,11.35-15,24.29-12.4,40.22,3.62,22,6.62,44.16,9.52,66.3h73.79c-3.54-15.82-7.1-31.62-10.78-47.4-1.43-6.19-.47-10.3,4.33-14.66,19.29-17.52,38.31-35.34,57.24-53.24,8.86-8.38,15.45-18,18.13-30.47,4.8-22.3,10.73-44.36,15.84-66.6A19.75,19.75,0,0,0,530.64,316.38Z" transform="translate(-17.04)"/><path class="cls-2" d="M530.23,355c2.12-7.84,4.79-15.59,6.18-23.56,1-5.69,1.76-12.18,0-17.47-5.79-17.65-12.5-35-19.41-52.29-2.35-5.89-6.54-11-9.47-16.71-5.06-9.82-9.89-19.89-9.44-31.28a23.34,23.34,0,0,1,3.55-10.48c1.67-2.83,4.29-3.38,6.3.52,8.16,15.85,17.21,31.29,24.41,47.55,4.07,9.19,4.81,19.8,7.73,29.57,2.85,9.5,6.67,18.71,9.82,28.13.85,2.54,2,5.92,1,8-6.14,13-12.84,25.69-19.35,38.5Z" transform="translate(-17.04)"/><path class="cls-2" d="M77.89,358.14C70.89,345.79,63.74,333.52,57,321a8.88,8.88,0,0,1,.2-7.34c8.09-14.17,8.3-30.35,12.18-45.58A158,158,0,0,1,77,245.55c5.6-13.28,11.79-26.31,17.74-39.43.49-1.08,1.09-2.1,2.58-5,2.77,3.41,6.4,5.86,6.77,8.74a55.26,55.26,0,0,1-.5,18.86,83.28,83.28,0,0,1-7.78,20.73c-11.68,21.89-16.91,46.08-25,69.23-1.59,4.55-.06,10.58,1.17,15.65,1.92,7.91,4.82,15.58,7.3,23.35Z" transform="translate(-17.04)"/><path class="cls-2" d="M57.08,195.58c6.93.68,11,5.2,12.85,11.84a45.05,45.05,0,0,1-1.23,29.52c-6.52,15.95-12.84,31.85-15.87,48.89-.16.91-.49,1.79-1.09,3.87-1.27-12.83-2.85-24.34-3.35-35.9-.21-5,2-10.13,2.78-15.25C53.24,224.33,55.1,210.08,57.08,195.58Z" transform="translate(-17.04)"/><path class="cls-2" d="M544.65,192.26c3.83,17.82,8.6,35.26,11.06,53,1.74,12.53.34,25.49.34,38.26l-2.12.26c-.5-1.7-1.15-3.37-1.49-5.1-3-15.31-9.89-29.11-16.21-43.18a48,48,0,0,1-3-32.28C534.89,197,538.38,194,544.65,192.26Z" transform="translate(-17.04)"/><path class="cls-2" d="M24.91,240.2c7.45-1.17,15.88,4.1,16.66,10.89a385.39,385.39,0,0,1,2.68,42.6C37.85,276,31.45,258.3,24.91,240.2Z" transform="translate(-17.04)"/><path class="cls-2" d="M579.82,233.7c-6.14,19.63-11.7,37.43-17.26,55.22l-1.32-.13c.61-12.5,1.6-25,1.65-37.49a16.68,16.68,0,0,1,7.3-14.23C572.46,235.4,575.7,235.07,579.82,233.7Z" transform="translate(-17.04)"/><text class="cls-3" transform="translate(178.21 116.36)">F<tspan class="cls-4" x="20.06" y="0">OUN</tspan><tspan class="cls-5" x="93.41" y="0">D</tspan><tspan class="cls-6" x="116.33" y="0">A</tspan><tspan class="cls-4" x="137.36" y="0">TION</tspan></text><path class="cls-1" d="M300.7,244.86a39.26,39.26,0,0,0,1.56-6.66,2.34,2.34,0,0,1,.15-.55L292,212.24h-4.23l-16.24,39.61h5.36l4.63-11.61h16.62l2.09,5.18A1.64,1.64,0,0,1,300.7,244.86Zm-18.16-8.52,7.37-18.3,7.14,18.3Z" transform="translate(-17.04)"/><path class="cls-7" d="M300.7,244.86c.28-1.21.56-2.41.78-3.63.11-.6.22-1.21.29-1.81a15.29,15.29,0,0,1,.26-1.92v.3q-2.88-6.24-5.67-12.51c-1.88-4.17-3.66-8.39-5.5-12.58l1.16.79-4.23.06,1.22-.82c-1.32,3.31-2.6,6.64-3.95,9.95l-4,9.92L277,242.49c-1.36,3.3-2.76,6.59-4.16,9.87l-1.25-1.86,5.36.07-1.19.8,4.9-11.49.28-.64.64,0,8.31.27,8.31.36h.25l.08.21q.92,2.64,1.8,5.3h-.07A1.56,1.56,0,0,1,300.7,244.86Zm0,0a1.58,1.58,0,0,0-.41.58l0,.09-.05-.09c-.8-1.69-1.6-3.37-2.37-5.07l.32.22-8.31.36-8.31.27.91-.62-4.36,11.72-.29.79h-.89l-5.36.07-2,0,.74-1.89c1.31-3.32,2.61-6.64,4-9.94l4-9.92,4.11-9.88c1.36-3.3,2.78-6.57,4.17-9.86l.35-.83h.88L292,211l.88,0,.29.77c1.62,4.28,3.3,8.54,4.88,12.83s3.17,8.59,4.71,12.91l.06.16-.06.13a13.86,13.86,0,0,0-.39,1.74c-.14.61-.3,1.21-.48,1.81C301.54,242.53,301.12,243.69,300.7,244.86Z" transform="translate(-17.04)"/><path class="cls-7" d="M282.54,236.34l2.73-9.05c1-3.2,2.11-6.52,3.34-9.78l1.2-3.2,1.4,3.22c.65,1.5,1.23,3,1.85,4.55s1.22,3,1.8,4.57,1.16,3.06,1.7,4.6,1.11,3.08,1.63,4.64l.58,1.77-1.72-.1-3.87-.22-3.75-.32Zm0,0c2.71-.21,5.22-.44,7.62-.69l3.49-.32,3.4-.22-1.14,1.67c-.68-1.49-1.3-3-2-4.51s-1.26-3-1.87-4.54-1.2-3-1.77-4.58-1.18-3.06-1.72-4.6h2.61c-1.24,2.84-2.57,5.63-4,8.53S284.15,233,282.54,236.34Z" transform="translate(-17.04)"/><path class="cls-1" d="M306.09,216.52c-.29,1.51-.69,3-1.13,4.5-.33,2-.5,4.08-.79,6.11.08-.31.17-.62.28-.92a15.88,15.88,0,0,1,2.67-5,13.35,13.35,0,0,1,4.19-3.46,11.33,11.33,0,0,1,5.46-1.31,13.18,13.18,0,0,1,6.64,1.67,12.1,12.1,0,0,1,4.75,5.13L332,220.6a15.89,15.89,0,0,0-5.66-6.25,18.86,18.86,0,0,0-16.82-.78,19.16,19.16,0,0,0-3.42,2.11A2.17,2.17,0,0,1,306.09,216.52Z" transform="translate(-17.04)"/><path class="cls-7" d="M306.09,216.52c-.37,1.5-.74,3-1.08,4.52h0c-.22,2-.41,4.09-.6,6.13l-.48-.1a16.83,16.83,0,0,1,3.57-7.29,14.5,14.5,0,0,1,3.2-2.73,11.74,11.74,0,0,1,4-1.58,13.94,13.94,0,0,1,4.32-.16,13.69,13.69,0,0,1,4.23,1.14,12.07,12.07,0,0,1,3.66,2.57,14,14,0,0,1,2.52,3.59l-2.15-.53c1.3-.88,2.61-1.73,3.93-2.57l-.44,1.71a15.42,15.42,0,0,0-4.21-5.47,14,14,0,0,0-6.39-3,18.8,18.8,0,0,0-7.36-.13,16,16,0,0,0-6.74,3.11h0A2,2,0,0,1,306.09,216.52Zm0,0a2,2,0,0,0,0-.84h0a19.52,19.52,0,0,1,6.68-3.42,22.41,22.41,0,0,1,7.58-.59,15.62,15.62,0,0,1,7.42,2.46,16.29,16.29,0,0,1,5.44,5.86l.53,1-1,.72c-1.25.94-2.5,1.87-3.77,2.78l-1.36,1-.79-1.5a11.16,11.16,0,0,0-4.83-4.9,12.35,12.35,0,0,0-3.35-1.12,14.49,14.49,0,0,0-3.6-.18,10.36,10.36,0,0,0-3.46.94,12.33,12.33,0,0,0-3.11,2.05,14.92,14.92,0,0,0-4.1,6.44l-.48-.1c.34-2,.69-4.05,1-6.07h0C305.33,219.52,305.71,218,306.09,216.52Z" transform="translate(-17.04)"/><path class="cls-1" d="M320.4,232.1v3.79h8.54v5.47q-5.19,6.24-11.66,6.24a12.22,12.22,0,0,1-5.47-1.22,13.6,13.6,0,0,1-4.35-3.38,16.2,16.2,0,0,1-2.9-5,16.84,16.84,0,0,1-1.06-6c0-.63,0-1.26.09-1.88-.83,3.7-2,7.39-1.81,11.21a1.65,1.65,0,0,1-.4,1.2,21.21,21.21,0,0,0,2.34,3.28,19.32,19.32,0,0,0,5.83,4.54,15.78,15.78,0,0,0,7.34,1.73q6.8,0,12.05-5.63v5.36h4.24V232.1Z" transform="translate(-17.04)"/><path class="cls-7" d="M320.4,232.1c0,1.31.13,2.57.19,3.79l-.19-.19,8.54-.35.52,0v.56l.19,5.47v.24l-.18.22a17.92,17.92,0,0,1-7.95,6.1,13.74,13.74,0,0,1-10.25-.47,14.59,14.59,0,0,1-4.28-3,17.24,17.24,0,0,1-3-4.26A18.48,18.48,0,0,1,302.16,230l2.84.46c-.47,2.1-1,4.13-1.36,6.13a23.73,23.73,0,0,0-.36,3c0,.49,0,1,0,1.46a4.23,4.23,0,0,1-.07,1.15,3,3,0,0,1-.7,1.37l.18-1.75a19.23,19.23,0,0,0,5,5.66,15.26,15.26,0,0,0,6.79,3,14.65,14.65,0,0,0,7.35-.62,16.76,16.76,0,0,0,6.21-4.24l2.27-2.38,0,3.25-.1,5.36-1.18-1.19,4.24.08-1.11,1.11c.06-3.3.15-6.59.24-9.88s.19-6.58.31-9.87l.56.55C329.06,232.51,324.83,232.25,320.4,232.1Zm0,0c4.09-.16,8.38-.42,12.78-.56l.53,0,0,.58c.12,3.29.23,6.58.31,9.87s.18,6.58.24,9.88l0,1.08-1.12,0-4.24.08-1.17,0,0-1.2-.09-5.36,2.21.87a19.21,19.21,0,0,1-7.1,5.07,16.82,16.82,0,0,1-8.79.91,16.61,16.61,0,0,1-4.29-1.25,21.51,21.51,0,0,1-3.8-2.23,21.22,21.22,0,0,1-5.8-6.54l.18-1.75s0,0,0,0,0-.06,0-.43c0-.58,0-1.15,0-1.71a27.63,27.63,0,0,1,.43-3.32c.4-2.16,1-4.22,1.43-6.24l2.84.46a15.85,15.85,0,0,0,1.38,8.67,13.41,13.41,0,0,0,5.93,6.33,11.69,11.69,0,0,0,8.59.73,16.43,16.43,0,0,0,7.45-5.15l-.17.47.19-5.47.54.54-8.54-.35h-.2v-.18Z" transform="translate(-17.04)"/><path class="cls-8" d="M295.25,272.32c.61-6.32,1.5-12.59,2.49-18.84.47-3.13,1-6.23,1.57-9.35L301,234.8l1.89-9.29c.69-3.09,1.32-6.19,2.06-9.26,1.43-6.16,3-12.31,4.78-18.39-.59,6.32-1.48,12.59-2.48,18.84-.47,3.13-1,6.23-1.57,9.35L304,235.38l-1.9,9.29c-.69,3.09-1.32,6.18-2.06,9.26C298.6,260.09,297.07,266.24,295.25,272.32Z" transform="translate(-17.04)"/><path class="cls-9" d="M21.17,181.06c1.33-2.95,2-4.42,3.39-7.31,9.83-.71,19.85-.93,29.7-.65-1.38,2.58-2.06,3.89-3.39,6.53-2.88-.1-4.33-.13-7.22-.17-2.46,5-3.64,7.55-5.91,12.75,1.87,2.23,2.82,3.34,4.73,5.53-1.19,2.79-1.76,4.2-2.89,7C33.12,197.18,26.94,189.2,21.17,181.06Zm18.51-1.63c-4.8,0-7.22,0-12.06.2,3,3.86,4.49,5.76,7.56,9.5C36.93,185.19,37.83,183.25,39.68,179.43Z" transform="translate(-17.04)"/><path class="cls-9" d="M58.47,134.17,72.17,144c-1.57,2.25-2.35,3.39-3.88,5.69l-21.7-14.76c1.34-2,2-3,3.38-5a208.12,208.12,0,0,1,25.25-5L61.8,114.09c1.83-2.31,2.76-3.45,4.64-5.7l20,17c-1.44,1.72-2.15,2.58-3.55,4.34A204,204,0,0,0,58.47,134.17Z" transform="translate(-17.04)"/><path class="cls-9" d="M111.56,70.37c-3.58,2.86-5.35,4.34-8.83,7.36L117,94.23c-2,1.7-2.92,2.56-4.84,4.31L97.51,82.37c-3.43,3.12-5.11,4.72-8.44,8L86,87.16a269.34,269.34,0,0,1,22.81-20.29Z" transform="translate(-17.04)"/><path class="cls-9" d="M136.77,47c2.4-1.5,3.61-2.24,6-3.69C151,48.46,159.1,54,166.82,59.9c-2.3,1.23-3.45,1.86-5.72,3.16-2.26-1.74-3.39-2.59-5.68-4.29-4.26,2.47-6.37,3.76-10.53,6.42.47,2.81.72,4.21,1.24,7-2.2,1.45-3.29,2.18-5.47,3.68C139,66.34,137.66,56.63,136.77,47Zm15.49,9.47c-3.83-2.78-5.77-4.15-9.7-6.83.61,4.71.95,7.06,1.69,11.72C147.43,59.33,149,58.35,152.26,56.45Z" transform="translate(-17.04)"/><path class="cls-9" d="M201.72,21.05c-4.22,1.44-6.32,2.2-10.49,3.79l7.93,20.28c-2.33.89-3.5,1.35-5.82,2.3L185,27.32c-4.14,1.69-6.2,2.57-10.28,4.42-.75-1.63-1.13-2.44-1.88-4.06a279,279,0,0,1,27.45-10.85Z" transform="translate(-17.04)"/><path class="cls-9" d="M232.56,7.73c2.71-.61,4.07-.9,6.8-1.45,6,7.58,11.69,15.5,17,23.55-2.55.41-3.82.63-6.36,1.09-1.54-2.38-2.32-3.56-3.9-5.92-4.76.92-7.14,1.42-11.86,2.53-.46,2.8-.68,4.19-1.09,7-2.51.62-3.76.94-6.25,1.61C228.38,26.62,230.28,17.07,232.56,7.73Zm11.36,14.05c-2.67-3.88-4-5.81-6.83-9.64-1,4.63-1.39,6.94-2.19,11.56C238.49,22.88,240.3,22.5,243.92,21.78Z" transform="translate(-17.04)"/><path class="cls-9" d="M308.19.05l-.5,26.2c-2.48-.05-3.73-.06-6.21-.05,0-4.47,0-6.71,0-11.18-6.07,0-9.11.1-15.18.42.25,4.47.37,6.7.61,11.17-2.5.13-3.75.21-6.25.39-.8-10.44-1.2-15.67-2-26.12,2.73-.2,4.1-.29,6.83-.43.23,4.23.35,6.34.58,10.57,6.16-.32,9.24-.41,15.41-.43,0-4.23,0-6.35,0-10.59C304.11,0,305.47,0,308.19.05Z" transform="translate(-17.04)"/><path class="cls-9" d="M409.75,47a18.33,18.33,0,0,1-5.19-3.13,16.89,16.89,0,0,1-3.66-4.39,13.83,13.83,0,0,1-1.74-5.13,11.73,11.73,0,0,1,.58-5.39,10.56,10.56,0,0,1,2.87-4.39,12.85,12.85,0,0,1,4.79-2.77,17,17,0,0,1,6.11-.78,20,20,0,0,1,6.75,1.52,19.64,19.64,0,0,1,7.28,4.75,11.74,11.74,0,0,1,3.14,6c-2.32.18-3.48.28-5.77.5a8.08,8.08,0,0,0-2.19-4.2,12.53,12.53,0,0,0-4.4-2.93,10.82,10.82,0,0,0-4-.82,9.56,9.56,0,0,0-3.62.67,8.48,8.48,0,0,0-2.89,1.93,8.55,8.55,0,0,0-2.36,6.42,8.29,8.29,0,0,0,.95,3.31,10.33,10.33,0,0,0,2.22,2.84A11,11,0,0,0,412,43a12.19,12.19,0,0,0,4.86.89,15.76,15.76,0,0,0,5.2-1.06c-.82,1.84-1.23,2.75-2.06,4.59A15,15,0,0,1,409.75,47Zm12.41-5.58c-2.48-1.09-3.73-1.62-6.23-2.65l1.45-3.44c4.55,1.88,6.82,2.86,11.3,4.93l-5.75,12.22c-1.89-.88-2.85-1.31-4.76-2.15C419.77,46.73,420.57,45,422.16,41.38Z" transform="translate(-17.04)"/><path class="cls-9" d="M468.21,47.14c2.4,1.51,3.59,2.28,6,3.84-1.13,9.63-2.67,19.31-4.6,28.8-2.14-1.56-3.22-2.32-5.39-3.83.59-2.77.87-4.17,1.42-7-4.11-2.78-6.19-4.12-10.39-6.7-2.34,1.64-3.5,2.47-5.8,4.14-2.25-1.35-3.38-2-5.66-3.3C451.63,57.47,459.86,52.09,468.21,47.14Zm-1.88,18c.86-4.64,1.26-7,2-11.67-4,2.58-6,3.9-9.89,6.58C461.61,62,463.2,63.06,466.33,65.15Z" transform="translate(-17.04)"/><path class="cls-9" d="M520.87,95.63c-3.26-3.37-4.91-5-8.27-8.24l-15,15.81c-1.89-1.8-2.84-2.69-4.76-4.44l14.65-16.15c-3.42-3.13-5.16-4.65-8.68-7.62,1.15-1.37,1.72-2.06,2.88-3.43A271.88,271.88,0,0,1,524.07,92.5Z" transform="translate(-17.04)"/><path class="cls-9" d="M545.57,117.4c-3.83,8.26-5.85,12.31-10.08,20.24,8.75-1.65,13.19-2.35,22.16-3.45,1.76,2.63,2.63,4,4.34,6.66-9.82.52-19.77,1.55-29.49,3.05-1.52-2.16-2.29-3.23-3.85-5.35,4.41-8.86,8.47-18,12.1-27.23C542.7,113.72,543.67,114.94,545.57,117.4Z" transform="translate(-17.04)"/><path class="cls-9" d="M580.19,173.8c1.39,2.9,2.07,4.36,3.39,7.31-5.78,8.12-12,16.09-18.43,23.68-1.13-2.85-1.71-4.26-2.89-7,1.91-2.19,2.86-3.29,4.73-5.52-2.27-5.19-3.45-7.74-5.91-12.74-2.89,0-4.34.06-7.22.15-1.33-2.64-2-3.95-3.39-6.53A294.65,294.65,0,0,1,580.19,173.8Zm-10.64,15.35c3.08-3.73,4.6-5.62,7.58-9.47-4.85-.17-7.26-.22-12.07-.22C566.91,183.28,567.81,185.22,569.55,189.15Z" transform="translate(-17.04)"/><path class="cls-2" d="M487.13,314.72a34.61,34.61,0,1,1-34.61-34.61A34.61,34.61,0,0,1,487.13,314.72Z" transform="translate(-17.04)"/><path class="cls-10" d="M447.75,323.52l-4.7-16.88-.75,0c-1,3.58-2.09,7.16-3.1,10.75a4.34,4.34,0,0,1-7,2.09c-4.46-3.77-5.79-8.75-4.46-14.17s5.05-8.73,10.66-9.93a13,13,0,0,1,9.45,1.58c4.3,2.43,5,4.12,4.07,9s-1.84,9.91-2.78,14.86c-.17.88-.48,1.74-.73,2.6Z" transform="translate(-17.04)"/><path class="cls-10" d="M435,321.25c4.7,1.37,4.76-2,5.53-4.56.6-2,1.15-4,1.72-6l.83-.07q2.44,8.79,4.88,17.59l.77.05q2.21-11.34,4.42-22.7l.84-.07q2,11.32,4.09,22.67l.73.12c.9-2.38,1.85-4.73,2.68-7.13,1.62-4.73,1.59-4.75,6.46-4.73,1.86,0,3.72.05,5.58.13.3,0,.59.28,1.18.58-.64.73-1.13,1.37-1.7,1.93q-9.06,9.09-18.14,18.14c-2,2-2.9,2-4.87.07q-6.76-6.71-13.47-13.47a20,20,0,0,1-1.36-1.68C435.07,321.82,435,321.54,435,321.25Z" transform="translate(-17.04)"/><path class="cls-10" d="M458.39,324c-.59-3.1-1.2-6.19-1.74-9.3-.81-4.64-1.64-9.28-2.28-13.94a3.54,3.54,0,0,1,1-2.72c4.41-3.79,11.68-3.9,16.45-.4a13.76,13.76,0,0,1,5,15.74,2.92,2.92,0,0,1-3.17,2.25c-3-.06-6.09.05-9.13,0-1.57,0-2.48.4-2.94,2.05-.6,2.16-1.53,4.23-2.31,6.34Z" transform="translate(-17.04)"/><path class="cls-2" d="M337,534.82a34.62,34.62,0,1,1-34.62-34.62A34.62,34.62,0,0,1,337,534.82Z" transform="translate(-17.04)"/><path class="cls-10" d="M293.18,524.86a7,7,0,0,0-.36,2c.18,1.65.58,3.28.8,4.93a3.91,3.91,0,0,1-.08,2.21,3.68,3.68,0,0,0,.22,3.8,50.75,50.75,0,0,1,2.63,5.71,4.65,4.65,0,0,1,0,3.06c-1.16,2.89-2.56,5.69-3.9,8.51-.73,1.54-2,2.1-3.24,1.49s-1.48-1.82-.79-3.37c1-2.21,1.95-4.44,3.07-6.58a3,3,0,0,0,0-3.16,31.51,31.51,0,0,0-1.89-3.37c0,1.63.09,3.27,0,4.89a7.79,7.79,0,0,1-.81,3c-1.09,2-2.37,4-3.59,6-.85,1.37-1.88,1.68-3.11,1a2.05,2.05,0,0,1-.67-3.27,16.38,16.38,0,0,0,3.6-13.85c-1-5.3,1.93-9.51,3.71-14a2.66,2.66,0,0,1,2.1-1.41,27.32,27.32,0,0,1,4.78,1.65c.05,0,0,.36,0,.55Z" transform="translate(-17.04)"/><path class="cls-10" d="M304.56,521.42l-4.74-2.2c-2.08,2.91-3.92,3.68-6.09,2.59s-2.7-3-1.69-6.23c-1.28-.61-2.6-1.2-3.87-1.87-.36-.19-.6-.63-.89-1,.36-.3.71-.84,1.07-.85a28.51,28.51,0,0,1,4.62.25,5.49,5.49,0,0,0,3.4,0c1.25-.56,2.2.14,2.9,1.33a18.53,18.53,0,0,0,2,2.41c1.07,1.26,2.19,2.47,3.19,3.78C304.66,520,304.51,520.6,304.56,521.42Z" transform="translate(-17.04)"/><path class="cls-10" d="M293.18,524.86l2.38-.27c.43,2.76.83,5.52,1.34,8.26.08.46.62.87,1,1.23s1.06.82,1.59,1.23l-1.22,1.1,1.1,1-.12.25c-1.46-.71-2.93-1.39-4.36-2.15a1.51,1.51,0,0,1-.49-1q-.71-4.2-1.33-8.43A5.49,5.49,0,0,1,293.18,524.86Z" transform="translate(-17.04)"/><path class="cls-10" d="M307.43,556.84c-.18-2.13,1.4-1.27,2.31-1.37.24,0,.56.69,1.07,1.36l1.42-.77a4.92,4.92,0,0,0,1.64.74c1.84.1,3.68,0,5.85,0l-1.43-1.24,2-1.65c.72,1.5.64,3.75,3.54,2.89-1.29,1.08-26.54,1.17-27.94.31a24.33,24.33,0,0,1,5.53-.3C303.41,556.81,305.36,556.84,307.43,556.84Z" transform="translate(-17.04)"/><path class="cls-10" d="M298.28,536.41l1.22-1.1c1.05.65,2.07,1.35,3.16,1.94q7.27,4,14.6,8a4.3,4.3,0,0,0,1.58.26c1.62.15,2.2,1.2,2.4,2.88-1.22-.15-2.67.66-2.84-1.46,0-.18-.37-.38-.6-.5q-9.6-4.95-19.21-9.89A1.09,1.09,0,0,0,298.28,536.41Z" transform="translate(-17.04)"/><path class="cls-10" d="M314.36,555.93c1.33-2.55,2.67-5.08,4.24-8.07.18.76.37,1.08.29,1.33C318.33,551,315.22,555.6,314.36,555.93Z" transform="translate(-17.04)"/><path class="cls-11" d="M337,444.57A34.62,34.62,0,1,1,302.36,410,34.62,34.62,0,0,1,337,444.57Z" transform="translate(-17.04)"/><path class="cls-10" d="M306.14,446.12l16.92-3.74v14.89a3.29,3.29,0,0,1-3.31,3.39h-.7c-11.31,0-22.62,0-33.94,0a3.36,3.36,0,0,1-3.44-3.47c0-4.82,0-9.64,0-14.46v-.4l2,.43L298.32,446c.23.05.29.13.29.35,0,.84,0,1.67,0,2.51a2.24,2.24,0,0,0,2.43,2.44h2.61a2.44,2.44,0,0,0,2.51-2.51C306.11,447.93,306.14,447,306.14,446.12Z" transform="translate(-17.04)"/><path class="cls-10" d="M306.16,445c0-.19,0-.34,0-.49a2.53,2.53,0,0,0-2-2.7,2.33,2.33,0,0,0-.53-.06h-2.78a2.26,2.26,0,0,0-2.28,2.16c0,.34,0,.69,0,1.08l-16.9-3.74a.55.55,0,0,1,0-.16c0-2.08,0-4.17,0-6.25a3.07,3.07,0,0,1,3.17-3.18q17.38,0,34.79,0a3.44,3.44,0,0,1,3.37,2.81,2.92,2.92,0,0,1,0,.51V441c0,.08,0,.15,0,.26Z" transform="translate(-17.04)"/><path class="cls-10" d="M310.49,431c-.75,0-1.45,0-2.16,0-.07,0-.17-.12-.2-.2a5.23,5.23,0,0,0-4.58-4,6.75,6.75,0,0,0-4.63.73,5.42,5.42,0,0,0-2.44,3.22c0,.1-.14.26-.21.26-.7,0-1.41,0-2.13,0a6.72,6.72,0,0,1,.85-2.58,7.58,7.58,0,0,1,6.51-4,9.14,9.14,0,0,1,4.39.61A7.62,7.62,0,0,1,310.49,431Z" transform="translate(-17.04)"/><path class="cls-10" d="M299.59,446.49c0-.78,0-1.56,0-2.34a1.32,1.32,0,0,1,1.4-1.4h2.61a1.37,1.37,0,0,1,1.54,1.55c0,1.48,0,3,0,4.44a1.4,1.4,0,0,1-1.55,1.58h-2.48a1.4,1.4,0,0,1-1.55-1.55v-2.27Z" transform="translate(-17.04)"/><path class="cls-11" d="M267,376a34.62,34.62,0,1,1-34.62-34.62A34.61,34.61,0,0,1,267,376Z" transform="translate(-17.04)"/><path class="cls-10" d="M216.23,359.9a8,8,0,0,1,.85,0,33.78,33.78,0,0,1,6.54,1.2l.12,0c.14-.49.27-1,.41-1.46a28.1,28.1,0,0,1,2.57-6.24,10.38,10.38,0,0,1,2.79-3.32,4.62,4.62,0,0,1,5.89.14,11.22,11.22,0,0,1,2.74,3.42,28.6,28.6,0,0,1,2.47,6.13c.13.44.24.88.37,1.32l2.59-.64c.06.28.13.53.19.79l-2.59.65c.07.32.14.62.19.92.23,1.21.47,2.42.65,3.64s.27,2.42.41,3.63a.31.31,0,0,0,.14.21,61.41,61.41,0,0,1,4.89,3.79c.46.39.89.79,1.34,1.19l.18.17.2-.14.54.53-.09.19.38.49-.53.53-.49-.44-.17.15c-.53.47-1,.95-1.58,1.41-1.48,1.26-3,2.45-4.63,3.57a.44.44,0,0,0-.18.23c-.06.48-.11,1-.16,1.44-.09.75-.14,1.5-.26,2.23-.17,1.14-.38,2.26-.59,3.39-.07.37-.16.74-.24,1.13l1.72.44a28.5,28.5,0,0,0,4.85.78,14.15,14.15,0,0,0,3.44-.14,6.86,6.86,0,0,0,2.6-.92l.44-.29-1.65,1.7a10.11,10.11,0,0,1-1.2.32,18.11,18.11,0,0,1-5.25,0,33.14,33.14,0,0,1-5-1l-.11,0c-.25.85-.49,1.7-.74,2.57l-.79-.24c.24-.85.49-1.7.73-2.56l-1.65-.55a54.41,54.41,0,0,1-5.77-2.34.86.86,0,0,0-.81,0,55.27,55.27,0,0,1-7.08,2.77l-.34.11.33,1.24a28.44,28.44,0,0,0,2.2,5.64,10.81,10.81,0,0,0,2.87,3.64,3.82,3.82,0,0,0,2.77.89,4.2,4.2,0,0,0,2.18-1,9.49,9.49,0,0,0,2-2.25c.22-.34.44-.7.66-1.06l.71.39c-.08.13-.16.28-.24.42a10.68,10.68,0,0,1-2.77,3.28,4.56,4.56,0,0,1-5.92-.11,10.17,10.17,0,0,1-2.44-2.9,27,27,0,0,1-2.59-6.05c-.19-.63-.36-1.27-.55-1.92-.52.13-1,.27-1.55.39a30.34,30.34,0,0,1-4.36.76l-1.23.1a1.85,1.85,0,0,1-.23,0l.73-.73a1.07,1.07,0,0,1,.19-.09c1-.14,1.93-.23,2.88-.41,1.13-.21,2.24-.49,3.36-.75,0-.12,0-.19,0-.26-.21-1.11-.47-2.21-.63-3.33-.23-1.51-.38-3-.58-4.56a.42.42,0,0,0-.16-.29,59.34,59.34,0,0,1-5.84-4.63l-.56-.5a.58.58,0,0,0-.14.12c-.91,1-1.84,1.93-2.71,2.94a18.09,18.09,0,0,0-2.94,4.63,7.15,7.15,0,0,0-.67,3.08,3.58,3.58,0,0,0,1.7,3c.06.07.12.15.19.22l1.22,1.21h-.17a5.39,5.39,0,0,1-2.91-1.89,4.49,4.49,0,0,1-.87-3.11,10.54,10.54,0,0,1,1.69-4.67,30,30,0,0,1,4.54-5.64c.16-.16.3-.34.45-.52l.53-.54a1.19,1.19,0,0,0,.25-.13,58.8,58.8,0,0,1,6.24-5,.45.45,0,0,0,.16-.27c.09-.77.15-1.54.25-2.31a51.48,51.48,0,0,1,.94-5.53c0-.1,0-.19,0-.32-1-.23-1.9-.49-2.86-.67-1.15-.21-2.32-.34-3.47-.51a1,1,0,0,1-.25-.08ZM222.82,376c.09,1.72.17,3.44.25,5.16a.38.38,0,0,0,.19.33,72.33,72.33,0,0,0,8.9,5.14.42.42,0,0,0,.43,0c1.27-.67,2.57-1.29,3.82-2,1.72-1,3.4-2.09,5.09-3.15a.39.39,0,0,0,.14-.25c.06-.7.11-1.39.14-2.09a68.83,68.83,0,0,0-.12-8.25.43.43,0,0,0-.21-.35,71.12,71.12,0,0,0-8.92-5.14.5.5,0,0,0-.38,0,68.75,68.75,0,0,0-8.91,5.16.37.37,0,0,0-.16.26C223,372.57,222.91,374.3,222.82,376Zm17.38-14.71c-.29-1-.57-2-.89-2.95a22.33,22.33,0,0,0-2.16-4.78,9.38,9.38,0,0,0-2.58-2.92,3.72,3.72,0,0,0-2.41-.75,4.43,4.43,0,0,0-2.73,1.33,11.77,11.77,0,0,0-2.37,3.23,27.44,27.44,0,0,0-2,4.94c-.19.63-.36,1.27-.54,1.92l1.52.5a56.39,56.39,0,0,1,6.1,2.47.5.5,0,0,0,.43,0c1.58-.67,3.15-1.35,4.74-2C238.24,362,239.2,361.66,240.2,361.32ZM224.38,389.9a54.45,54.45,0,0,0,7-2.68c-1.41-.77-2.8-1.49-4.16-2.28s-2.66-1.62-4-2.44A45.1,45.1,0,0,0,224.38,389.9Zm8.94-25a75.17,75.17,0,0,1,8.23,4.75,52.15,52.15,0,0,0-1.17-7.46A56.43,56.43,0,0,0,233.32,364.86Zm0,22.34a55,55,0,0,0,7.05,2.71,53.15,53.15,0,0,0,1.18-7.46A73.83,73.83,0,0,1,233.32,387.2Zm-11.11-15.92a55.22,55.22,0,0,0-5.88,4.75,56.09,56.09,0,0,0,5.88,4.76A71.86,71.86,0,0,1,222.21,371.28Zm2.16-9.12a45.21,45.21,0,0,0-1.15,7.42,72.38,72.38,0,0,1,8.18-4.71A54.75,54.75,0,0,0,224.37,362.16Zm18.19,9.18c0,1.57.1,3.14.1,4.71s-.07,3.12-.11,4.68a46.39,46.39,0,0,0,5.8-4.71A50.54,50.54,0,0,0,242.56,371.34Z" transform="translate(-17.04)"/><path class="cls-10" d="M249.71,375.84l-.54-.53c.49-.51,1-1,1.46-1.53a23.7,23.7,0,0,0,3.79-5.26,8.25,8.25,0,0,0,1-3.7,3.57,3.57,0,0,0-1.49-3l-.08-.09-.44-.44-1-1s.06,0,.09,0a4.87,4.87,0,0,1,3.47,3,5.27,5.27,0,0,1,.1,2.92,12.2,12.2,0,0,1-1.58,3.73,30.91,30.91,0,0,1-4.62,5.7A1.6,1.6,0,0,1,249.71,375.84Z" transform="translate(-17.04)"/><path class="cls-10" d="M252.57,391.73l1.65-1.7c.19-.22.4-.42.57-.65a3.54,3.54,0,0,0,.66-2.07,7.93,7.93,0,0,0-.88-3.47,21.4,21.4,0,0,0-3.31-4.84c-.58-.67-1.19-1.3-1.79-1.95l.53-.53a1.22,1.22,0,0,1,.19.12,30.09,30.09,0,0,1,4.42,5.52,12,12,0,0,1,1.57,3.86,4.68,4.68,0,0,1-3.12,5.59A4.37,4.37,0,0,1,252.57,391.73Z" transform="translate(-17.04)"/><path class="cls-10" d="M237,395.83a2.08,2.08,0,0,1,2-2.1,2.09,2.09,0,1,1,.13,4.18A2.06,2.06,0,0,1,237,395.83Z" transform="translate(-17.04)"/><path class="cls-10" d="M216.23,359.9l.73.73a1.09,1.09,0,0,1-.25,0c-.92,0-1.84,0-2.76.1a7.26,7.26,0,0,0-2.81.83,3.65,3.65,0,0,0-1.26,1.15,3.8,3.8,0,0,0-.57,2.66,10.39,10.39,0,0,0,1.49,4,1.09,1.09,0,0,1,.08.15l-.69.43c-.07-.13-.15-.25-.23-.38a11.08,11.08,0,0,1-1.42-3.72,4.59,4.59,0,0,1,1.45-4.51,5.63,5.63,0,0,1,2.22-1.16,12.39,12.39,0,0,1,3.74-.42Z" transform="translate(-17.04)"/><path class="cls-10" d="M246.22,362.33a3.06,3.06,0,0,1-.68,0,2.09,2.09,0,1,1,2.55-2.74,3.12,3.12,0,0,1,.13.59c0,.07-.05.14-.08.21l-.62.67Z" transform="translate(-17.04)"/><path class="cls-10" d="M209.86,371.61a1.61,1.61,0,0,1,0-.39,2,2,0,0,1,2.15-1.33,2.09,2.09,0,0,1,.43,4.08.6.6,0,0,1-.23,0Z" transform="translate(-17.04)"/><path class="cls-10" d="M217.1,391.44l-.73.73a2.73,2.73,0,0,1-.4.05,12.76,12.76,0,0,1-3.32-.3l-.26-.11-1.22-1.21c-.07-.07-.13-.15-.19-.22a.67.67,0,0,1,.15.06,7.07,7.07,0,0,0,2.18.76,15.31,15.31,0,0,0,3.64.18A.47.47,0,0,1,217.1,391.44Z" transform="translate(-17.04)"/><path class="cls-10" d="M252.48,360.31l1,1,.44.44a1.09,1.09,0,0,1-.17-.05,7,7,0,0,0-2.91-.92c-.7-.08-1.41-.11-2.15-.17a4.62,4.62,0,0,1,0-.64c0-.05.15-.13.22-.13.77,0,1.53.07,2.29.16A10,10,0,0,1,252.48,360.31Z" transform="translate(-17.04)"/><path class="cls-10" d="M209.86,371.61l2.39,2.38a1.6,1.6,0,0,1-1.32-.14,2.06,2.06,0,0,1-1.15-2.13S209.83,371.64,209.86,371.61Z" transform="translate(-17.04)"/><path class="cls-10" d="M215.65,375.44l-.53.54-1.33-1.32c-.18-.18-.34-.37-.52-.56l.65-.6a.68.68,0,0,0,.12.22l1.44,1.5C215.55,375.29,215.59,375.37,215.65,375.44Z" transform="translate(-17.04)"/><path class="cls-10" d="M246.22,362.33l1.3-1.29.62-.67s.08.06.08.09a2.12,2.12,0,0,1-1.82,1.91C246.34,362.38,246.28,362.34,246.22,362.33Z" transform="translate(-17.04)"/><path class="cls-10" d="M229.07,377.92a2.07,2.07,0,0,1-2.54-.57,2.08,2.08,0,0,1,1.56-3.4,4.93,4.93,0,0,1,.86.1,2.08,2.08,0,0,1-.49-2.73,2,2,0,0,1,2.1-1,2.18,2.18,0,0,1,1.8,1.86,2.16,2.16,0,0,1,1.32-1.72,2,2,0,0,1,2.11.31,2.13,2.13,0,0,1,0,3.29,7.53,7.53,0,0,1,.83-.1,2.09,2.09,0,0,1,0,4.17,7.38,7.38,0,0,1-.92-.16h0l.16-.37a3.72,3.72,0,0,0,.31-2,3.8,3.8,0,0,0-7.58.34,4.24,4.24,0,0,0,.49,2Z" transform="translate(-17.04)"/><path class="cls-10" d="M235.67,378h0a2.09,2.09,0,1,1-3.24,2.17.31.31,0,0,0-.07-.16c0,.12-.06.24-.1.36a2.1,2.1,0,0,1-1.95,1.44,2.07,2.07,0,0,1-2-1.37,2.12,2.12,0,0,1,.58-2.3l.2-.18h0l.08.09a3.75,3.75,0,0,0,5.6,1A7.72,7.72,0,0,0,235.67,378Z" transform="translate(-17.04)"/><path class="cls-10" d="M235.71,376a3.35,3.35,0,1,1-3.36-3.35A3.33,3.33,0,0,1,235.71,376Z" transform="translate(-17.04)"/><path class="cls-11" d="M417,376.38a34.62,34.62,0,1,1-34.62-34.62A34.61,34.61,0,0,1,417,376.38Z" transform="translate(-17.04)"/><path class="cls-10" d="M380.59,399.45h-8.5c0-.69,0-1.36,0-2-.11-1.24-.22-2.48-.44-3.7a2.69,2.69,0,0,0-.78-1.34c-2.08-1.95-4.21-3.83-6.3-5.77a6.19,6.19,0,0,1-1.92-3.63,37.49,37.49,0,0,1-.42-3.82c-.15-2.44-.29-4.87-.34-7.31a41.29,41.29,0,0,1,.65-8.16,3.36,3.36,0,0,1,.43-1.17,1.7,1.7,0,0,1,2-.74,2.15,2.15,0,0,1,1.52,2c0,.67,0,1.36,0,2q0,4.07,0,8.15a.76.76,0,0,1-.23.53,3,3,0,0,0-.66,4.24c2.28,2.88,4.66,5.67,7,8.5l.12.12c.22.22.46.33.72.09s.13-.49-.08-.72c-.79-.86-1.62-1.71-2.36-2.61-1.54-1.87-3-3.77-4.54-5.68a2.31,2.31,0,0,1-.44-2.21,1.53,1.53,0,0,1,2.44-.86,22.36,22.36,0,0,1,1.88,1.76c2.14,2.07,4.27,4.15,6.41,6.21.82.78,1.76,1.46,2.5,2.31a6.67,6.67,0,0,1,1.64,4.5c0,1.07-.18,2.15-.27,3.22,0,.24,0,.47,0,.71C380.59,395.87,380.59,397.64,380.59,399.45Z" transform="translate(-17.04)"/><path class="cls-10" d="M392.56,399.47h-8.22a.93.93,0,0,1-.22,0c0-1.75,0-3.49,0-5.24a12,12,0,0,0-.18-1.57,9.46,9.46,0,0,1,.53-5.39,9.22,9.22,0,0,1,2.41-3c2.33-2.13,4.62-4.3,6.91-6.46.77-.73,1.49-1.53,2.27-2.24a1.57,1.57,0,0,1,2.65.85,2.43,2.43,0,0,1-.48,2.12c-1.32,1.69-2.64,3.38-4,5-.91,1.1-1.89,2.14-2.85,3.21-.22.24-.39.48-.09.75s.54.08.75-.15c1.45-1.68,2.92-3.35,4.34-5.05.91-1.08,1.74-2.23,2.62-3.33a3.13,3.13,0,0,0-.57-4.45.58.58,0,0,1-.22-.42c0-3.42,0-6.83,0-10.25a2.14,2.14,0,0,1,1.91-2.14,2,2,0,0,1,2,1.81A46.93,46.93,0,0,1,402.8,374c-.11,2.36-.36,4.72-.48,7.08a8.17,8.17,0,0,1-2.88,6.24c-.55.46-1.05,1-1.59,1.45-1.08,1-2.11,2-3.26,2.87a5,5,0,0,0-1.87,4.14C392.67,397,392.61,398.2,392.56,399.47Z" transform="translate(-17.04)"/><path class="cls-10" d="M373.18,378.88v-2.81q0-6.58,0-13.17a1.14,1.14,0,0,1,.44-1c2.94-2.63,5.86-5.28,8.83-8l1.59,1.42c2.47,2.24,5,4.47,7.42,6.73a1.14,1.14,0,0,1,.32.75c0,3.46,0,6.94,0,10.41v5.63h-4.39c0-1.14,0-2.29,0-3.44.05-1.94,0-3.85-1.32-5.47a4.42,4.42,0,0,0-7.34.19,6.59,6.59,0,0,0-1.14,3.89v4.82Zm9.26-12.9h3.19c.49,0,.72-.16.71-.67,0-1.13,0-2.27,0-3.41a3.87,3.87,0,0,0-3.7-3.72,3.82,3.82,0,0,0-4,3.33c-.13,1.29-.06,2.61-.07,3.91,0,.41.23.57.63.56Z" transform="translate(-17.04)"/><path class="cls-10" d="M369.85,361.31l12.6-11.41L395,361.3l-1.3,1.65-2.44-2.19q-4.19-3.78-8.36-7.58c-.36-.32-.61-.31-1,0q-5.15,4.68-10.33,9.34c-.13.12-.28.23-.47.39Z" transform="translate(-17.04)"/><path class="cls-10" d="M386.45,378.9h-3.52v-4h3.52Z" transform="translate(-17.04)"/><path class="cls-10" d="M378.5,374.91H382v4H378.5Z" transform="translate(-17.04)"/><path class="cls-10" d="M382.92,369.08c2.13.17,3.71,2.68,3.53,4.95-1.07,0-2.15,0-3.22,0-.11,0-.3-.21-.3-.33C382.91,372.16,382.92,370.63,382.92,369.08Z" transform="translate(-17.04)"/><path class="cls-10" d="M378.54,374c-.26-1.73,1-4.72,3.5-4.95v3c0,.49,0,1,0,1.48s-.1.46-.44.45Z" transform="translate(-17.04)"/><path class="cls-10" d="M386.65,350.21h2.81v4.85l-2.68-2.44a.29.29,0,0,1-.12-.18C386.65,351.7,386.65,351,386.65,350.21Z" transform="translate(-17.04)"/><path class="cls-10" d="M367.45,364.63a1.35,1.35,0,0,1,.91,1.25c.07,1.09.09,2.2.12,3.3,0,1.55.07,3.11.11,4.67,0,.14,0,.28,0,.48l-1.11-.15Z" transform="translate(-17.04)"/><path class="cls-10" d="M397.29,374.11l-1.13.26c0-.4,0-.77,0-1.14.06-2.42.11-4.84.18-7.26a1.46,1.46,0,0,1,1-1.36Z" transform="translate(-17.04)"/><path class="cls-10" d="M394.35,408.85l-.22-.07.23,0A.28.28,0,0,0,394.35,408.85Z" transform="translate(-17.04)"/><path class="cls-10" d="M385.4,365.07h-2.46v-2.21h2.46Z" transform="translate(-17.04)"/><path class="cls-10" d="M379.49,365.07v-2.2H382v2.2Z" transform="translate(-17.04)"/><path class="cls-10" d="M382,361.91h-2.42c-.29-1.12,1.14-2.74,2.42-2.74Z" transform="translate(-17.04)"/><path class="cls-10" d="M382.94,359.18a2.8,2.8,0,0,1,2.48,2.72h-2.48Z" transform="translate(-17.04)"/><path class="cls-2" d="M193.27,315.23a34.62,34.62,0,1,1-34.62-34.62A34.61,34.61,0,0,1,193.27,315.23Z" transform="translate(-17.04)"/><path class="cls-10" d="M161,339a28.84,28.84,0,0,0-2.44-1.87,2.75,2.75,0,0,0-1.39-.14c-1.3,0-2.61,0-3.91.09-.35,0-.69.2-1,.23s-1.13.08-1.16,0c-.13-.49-.28-1.23,0-1.52a5.18,5.18,0,0,1,1.85-1.13,5.9,5.9,0,0,1,1.57-.11c-1-1.1-1.24-2.43-2.62-3a12.24,12.24,0,0,1-2.38-1.6c-.11,1.66-.3,3.82-.34,6,0,.58.1.95-.54,1.24-.25.11-.37.61-.45,1a25.47,25.47,0,0,1-.86,3.52c-.4.94-3.44,1-4,.09a1,1,0,0,1,.05-1,17.19,17.19,0,0,1,1.51-1.3c.32-.26.61-.55,1-.91-1-.28-1.66-.43-2.3-.68-.82-.32-.77-.84-.18-1.36.26-.24.55-.57.86-.62,1.35-.18,1.49-1,1.43-2.16-.14-2.39-.18-4.78-.29-7.17a2.33,2.33,0,0,0-.34-1.24,16.24,16.24,0,0,1-3.1-7.67,5.11,5.11,0,0,0-.56-1.56,2.42,2.42,0,0,1,.56-2.81A5.48,5.48,0,0,0,143.2,311c.34-1.22.44-2.51.66-3.76.35-2,1.08-4.06,1-6.05a8.86,8.86,0,0,0-1.86-4.87c-1.64-2-.61-4.81.77-6.09a1.16,1.16,0,0,1,1,.07c1,.64,1.85,1.4,2.8,2.06a2.46,2.46,0,0,0,1.27.54,6.44,6.44,0,0,1,6.18,5.16,12,12,0,0,1,.05,2.61c-.11,2.86-.37,5.72-.29,8.57,0,.9.86,1.83,1.46,2.64,1,1.3,2.06,2.52,3.1,3.78.18.21.32.46.5.67,2.33,2.63,4.66,5.25,7,7.89a14.46,14.46,0,0,1,2.91,5.57c1.12,3.78,3.88,5.51,7.79,4.41a18.12,18.12,0,0,1,4.15-.57,10.11,10.11,0,0,1,2.37.49l.12.55a16.52,16.52,0,0,1-2.36,1.3c-1.94.71-3.92,1.29-5.89,1.92a1.14,1.14,0,0,1-.59.1c-1.78-.47-3.68-.54-5.2-1.83a8.74,8.74,0,0,0-1.81-1l-2.58,3.8.08.2c.52,1.25.3,1.63-1.07,1.83-2.33.34-4.67.68-7,1a18.84,18.84,0,0,1-2.9.19.83.83,0,0,1-.65-1.38,4.29,4.29,0,0,1,2.14-1.41,28.85,28.85,0,0,1,4.06-.29A2.68,2.68,0,0,0,161,339Z" transform="translate(-17.04)"/><path class="cls-9" d="M35.93,440.35a310.6,310.6,0,0,0,14.79,37.22l-17.85,8.74C26.92,473.22,21.72,460.09,17,446.49ZM21,449.79c4.63,4.66,7,6.87,11.72,11.08.65-6.34,1-9.49,2-15.75ZM46.8,472.47A258.43,258.43,0,0,1,36.68,447c-.9,6.23-1.27,9.36-1.88,15.67C39.56,466.83,42,468.78,46.8,472.47Zm-15.47,7.16c.29-6.42.51-9.61,1.1-16-4.77-4.17-7.14-6.37-11.81-11C23.73,461.78,27.34,470.87,31.33,479.63Zm2.2,1.74,13.1-6.19c-4.87-3.66-7.29-5.6-12.09-9.69C34,471.81,33.78,475,33.53,481.37Z" transform="translate(-17.04)"/><path class="cls-9" d="M50.06,476.16a286.55,286.55,0,0,0,18.48,33.45l-16.61,11a308.67,308.67,0,0,1-19.78-35.8Zm-13.69,11.2c5,3.76,7.58,5.53,12.69,8.85-.05-6.15,0-9.22.26-15.33Zm27.77,17.92A240,240,0,0,1,51.5,482.42c-.22,6.07-.26,9.12-.19,15.25C56.42,500.92,59,502.44,64.14,505.28ZM49.71,514.4c-.4-6.21-.52-9.3-.62-15.47-5.14-3.29-7.69-5-12.77-8.76A256.2,256.2,0,0,0,49.71,514.4Zm2.35,1.35,12.2-7.85c-5.18-2.81-7.76-4.31-12.9-7.53C51.48,506.5,51.62,509.58,52.06,515.75Z" transform="translate(-17.04)"/><path class="cls-9" d="M67.74,508.35a275.07,275.07,0,0,0,21.79,29.7L74.39,551a295.94,295.94,0,0,1-23.32-31.78ZM55.49,521.11c5.36,2.89,8,4.23,13.42,6.72-.7-6-1-8.91-1.39-14.82Zm29.24,13.35a228.83,228.83,0,0,1-14.9-20.29c.43,5.88.72,8.83,1.45,14.74C76.66,531.32,79.35,532.43,84.73,534.46Zm-13.2,10.86c-1.07-6-1.53-8.93-2.29-14.87-5.41-2.46-8.11-3.78-13.5-6.63A244.29,244.29,0,0,0,71.53,545.32Zm2.45,1L85.13,537c-5.4-2-8.1-3.09-13.51-5.48C72.41,537.42,72.88,540.38,74,546.31Z" transform="translate(-17.04)"/><path class="cls-9" d="M88.59,536.94a272.52,272.52,0,0,0,24.7,25.93L99.82,577.6a291.22,291.22,0,0,1-26.43-27.76ZM77.94,551c5.58,2.06,8.38,3,13.94,4.67-1.35-5.69-1.94-8.53-3-14.22Zm30.23,9a225.32,225.32,0,0,1-16.88-17.73c1.06,5.66,1.67,8.48,3,14.14C99.89,558,102.66,558.76,108.17,560ZM96.37,572.4c-1.71-5.67-2.48-8.51-3.88-14.19-5.59-1.65-8.4-2.57-14-4.59A237.85,237.85,0,0,0,96.37,572.4Zm2.53.63,9.95-10.6c-5.54-1.23-8.32-1.92-13.9-3.51C96.37,564.57,97.16,567.4,98.9,573Z" transform="translate(-17.04)"/><path class="cls-9" d="M112.25,561.91a271.83,271.83,0,0,0,27.22,22.18c-4.66,6.48-7,9.72-11.64,16.21a289.33,289.33,0,0,1-29.12-23.73Zm-8.94,15.21c5.73,1.26,8.59,1.8,14.26,2.72-2-5.4-2.87-8.1-4.52-13.52ZM134.1,582a225.91,225.91,0,0,1-18.6-15.16c1.67,5.39,2.58,8.08,4.56,13.44C125.72,581.08,128.53,581.42,134.1,582Zm-10.25,13.69c-2.32-5.35-3.4-8-5.41-13.42-5.69-.88-8.55-1.41-14.3-2.64A239.54,239.54,0,0,0,123.85,595.64Zm2.56.29,8.62-11.7c-5.59-.49-8.41-.82-14.08-1.64C123,588,124.07,590.62,126.41,595.93Z" transform="translate(-17.04)"/><path class="cls-9" d="M138.34,583.28c9.64,6.62,19.18,12.61,29.33,18.42L158,619.14a293,293,0,0,1-31.39-19.71C131.3,593,133.65,589.74,138.34,583.28Zm-7.12,16.1c5.79.51,8.67.68,14.36.86-2.54-5.07-3.73-7.62-6-12.73Zm30.91.86a229.29,229.29,0,0,1-20-12.58c2.25,5.08,3.45,7.62,6,12.65C153.76,600.44,156.57,600.42,162.13,600.24ZM153.56,615c-2.89-5-4.26-7.5-6.85-12.56-5.71-.15-8.59-.3-14.4-.78A241.92,241.92,0,0,0,153.56,615Zm2.56,0c2.87-5,4.31-7.57,7.19-12.62-5.57.21-8.39.24-14.08.15C151.83,607.55,153.21,610.05,156.12,615Z" transform="translate(-17.04)"/><path class="cls-9" d="M166.46,601c10.29,5.37,20.39,10.14,31.07,14.66L190,634.12a299.06,299.06,0,0,1-33.24-15.69C160.62,611.47,162.57,608,166.46,601Zm-5.2,16.78c5.77-.21,8.63-.39,14.27-.9-3.07-4.7-4.54-7.08-7.33-11.86Zm30.63-2.89c-8.64-3.65-12.9-5.65-21.24-10,2.8,4.75,4.28,7.1,7.37,11.77C183.64,616.11,186.42,615.76,191.89,614.92Zm-6.79,15.66c-3.43-4.59-5.07-6.91-8.2-11.6-5.65.54-8.52.74-14.31,1A248,248,0,0,0,185.1,630.58Zm2.52-.33,5.68-13.36c-5.49.87-8.27,1.24-13.9,1.84C182.54,623.38,184.18,625.69,187.62,630.25Z" transform="translate(-17.04)"/><path class="cls-9" d="M208.56,619.83c10.94,3.59,21.63,6.65,32.82,9.39l-4.5,19.37a307.8,307.8,0,0,1-35.12-10.05Zm-2.45,17.36c5.63-1.16,8.4-1.81,13.86-3.23-3.77-4.13-5.58-6.22-9.07-10.47C209,629,208,631.71,206.11,637.19Zm29.6-7.83c-9.06-2.2-13.56-3.49-22.43-6.42,3.5,4.21,5.32,6.29,9.09,10.39C227.8,631.86,230.47,631.07,235.71,629.36Zm-4.17,16.53c-4.1-4-6.08-6-9.89-10.11-5.47,1.45-8.25,2.11-13.89,3.31C217.16,642.19,221.93,643.55,231.54,645.89Zm2.42-.74,3.45-14.07c-5.25,1.74-7.92,2.55-13.36,4C227.88,639.2,229.86,641.21,234,645.15Z" transform="translate(-17.04)"/><path class="cls-9" d="M240.05,628.92c11.25,2.33,22.21,4.17,33.6,5.64-.89,7.9-1.34,11.84-2.24,19.74a312.62,312.62,0,0,1-36-6Zm-.44,17.51c5.44-1.79,8.12-2.74,13.36-4.77-4.2-3.67-6.24-5.55-10.18-9.37C241.51,638,240.88,640.78,239.61,646.43Zm28.44-11.1c-9.24-1.18-13.85-2-23-3.86,3.95,3.79,6,5.65,10.2,9.29C260.49,638.7,263.05,637.61,268.05,635.33Zm-2.24,16.88c-4.52-3.49-6.71-5.28-11-8.93-5.25,2.06-7.93,3-13.38,4.85C251.13,650.15,256,651,265.81,652.21Zm2.31-1c.73-5.74,1.09-8.62,1.81-14.36-5,2.31-7.56,3.42-12.78,5.51C261.41,646,263.61,647.75,268.12,651.21Z" transform="translate(-17.04)"/><path class="cls-9" d="M272.3,634.41c11.42,1.06,22.52,1.67,34,1.88l0,19.86a316,316,0,0,1-36.38-2C270.9,646.25,271.36,642.3,272.3,634.41Zm1.57,17.44c5.2-2.38,7.74-3.63,12.72-6.22-4.6-3.19-6.84-4.83-11.19-8.18C274.79,643.21,274.48,646.09,273.87,651.85Zm26.95-14.18c-9.31-.15-14-.41-23.24-1.29,4.35,3.32,6.59,4.94,11.19,8.1C293.71,641.85,296.12,640.49,300.82,637.67Zm-.29,17c-4.88-3-7.26-4.51-11.91-7.66-5,2.62-7.52,3.89-12.71,6.3C285.73,654.26,290.67,654.53,300.53,654.69Zm2.19-1.25c.06-5.79.09-8.68.14-14.47-4.7,2.85-7.11,4.23-12.05,6.89C295.45,649,297.84,650.5,302.72,653.44Z" transform="translate(-17.04)"/><path class="cls-9" d="M304.93,636.29c11.48-.21,22.57-.82,34-1.88.93,7.89,1.4,11.84,2.34,19.73a316,316,0,0,1-36.38,2C304.91,648.21,304.92,644.23,304.93,636.29Zm3.58,17.15c4.88-2.94,7.26-4.45,11.91-7.58-4.94-2.66-7.35-4-12.05-6.89C308.42,644.76,308.45,647.65,308.51,653.44Zm25.14-17.06c-9.27.88-13.93,1.14-23.24,1.29,4.7,2.82,7.11,4.18,12,6.81C327.06,641.32,329.3,639.7,333.65,636.38Zm1.67,17c-5.19-2.41-7.74-3.68-12.72-6.3-4.64,3.15-7,4.69-11.91,7.66C320.56,654.53,325.5,654.26,335.32,653.33Zm2-1.48c-.62-5.76-.92-8.64-1.53-14.4-4.35,3.35-6.59,5-11.19,8.18C329.62,648.22,332.16,649.47,337.36,651.85Z" transform="translate(-17.04)"/><path class="cls-9" d="M337.58,634.56c11.39-1.47,22.35-3.31,33.6-5.64l4.6,19.35a312.62,312.62,0,0,1-36,6C338.92,646.4,338.47,642.46,337.58,634.56Zm5.52,16.65c4.52-3.46,6.72-5.23,11-8.85-5.22-2.09-7.77-3.2-12.78-5.51Zm23-19.74c-9.13,1.91-13.73,2.68-23,3.86,5,2.28,7.56,3.37,12.77,5.43C360.16,637.12,362.2,635.26,366.15,631.47Zm3.62,16.66c-5.45-1.82-8.13-2.8-13.38-4.85-4.26,3.65-6.45,5.44-11,8.93C355.22,651,360.1,650.15,369.77,648.13Zm1.85-1.7c-1.27-5.65-1.91-8.48-3.18-14.14-3.94,3.82-6,5.7-10.19,9.37C363.5,643.69,366.18,644.64,371.62,646.43Z" transform="translate(-17.04)"/><path class="cls-9" d="M369.85,629.22c11.19-2.74,21.88-5.8,32.82-9.39l6.8,18.71a307.8,307.8,0,0,1-35.12,10.05Zm7.42,15.93c4.1-3.94,6.08-5.95,9.91-10-5.44-1.5-8.11-2.31-13.36-4ZM398,622.94c-8.87,2.93-13.37,4.21-22.43,6.42,5.24,1.71,7.91,2.5,13.34,4C392.63,629.23,394.45,627.15,398,622.94Zm5.52,16.15c-5.64-1.2-8.42-1.86-13.89-3.31-3.81,4.11-5.79,6.13-9.89,10.11C389.3,643.55,394.07,642.19,403.47,639.09Zm1.65-1.91c-1.92-5.47-2.87-8.21-4.79-13.69-3.49,4.25-5.3,6.34-9.07,10.47C396.72,635.38,399.49,636,405.12,637.18Z" transform="translate(-17.04)"/><path class="cls-9" d="M413.7,615.69c10.67-4.52,20.78-9.29,31.06-14.66l9.75,17.4a299,299,0,0,1-33.24,15.68C418.24,626.75,416.73,623.06,413.7,615.69Zm9.91,14.56c3.44-4.56,5.08-6.87,8.23-11.52-5.64-.6-8.42-1-13.91-1.84C420.2,622.23,421.34,624.9,423.61,630.25Zm17-25.35c-8.35,4.37-12.6,6.37-21.24,10,5.47.84,8.25,1.19,13.87,1.75C436.3,612,437.78,609.65,440.58,604.9ZM448.64,620c-5.79-.25-8.66-.45-14.31-1-3.14,4.69-4.77,7-8.2,11.6A248,248,0,0,0,448.64,620Zm1.33-2.16L443,605.05c-2.79,4.78-4.26,7.15-7.33,11.86C441.34,617.42,444.2,617.6,450,617.81Z" transform="translate(-17.04)"/><path class="cls-9" d="M443.56,601.69c10.15-5.8,19.69-11.79,29.33-18.41l11.72,16.15a294,294,0,0,1-31.39,19.71C449.35,612.16,447.42,608.67,443.56,601.69ZM455.11,615c2.91-5,4.29-7.45,6.89-12.47-5.69.09-8.51.06-14.08-.15C450.79,607.43,452.23,610,455.11,615Zm14-27.34a229.29,229.29,0,0,1-20,12.58c5.55.18,8.37.2,14,.07C465.69,595.28,466.9,592.74,469.15,587.66Zm9.77,14c-5.81.48-8.69.63-14.4.78-2.59,5.06-4,7.57-6.85,12.56A241.92,241.92,0,0,0,478.92,601.69Zm1.09-2.31-8.4-11.87c-2.23,5.11-3.43,7.66-6,12.73C471.34,600.06,474.22,599.89,480,599.38Z" transform="translate(-17.04)"/><path class="cls-9" d="M471.76,584.09A271.83,271.83,0,0,0,499,561.91l13.54,14.66A289.33,289.33,0,0,1,483.4,600.3Zm13.06,11.84c2.34-5.31,3.43-8,5.46-13.34-5.67.82-8.49,1.15-14.09,1.64Zm10.91-29.14a225.78,225.78,0,0,1-18.6,15.15c5.57-.52,8.38-.86,14-1.71C493.14,574.87,494.06,572.18,495.73,566.79Zm11.36,12.79c-5.75,1.23-8.61,1.75-14.3,2.64-2,5.39-3.1,8.07-5.41,13.42A239.54,239.54,0,0,0,507.09,579.58Zm.83-2.46-9.74-10.8c-1.66,5.42-2.56,8.12-4.52,13.52C499.33,578.92,502.18,578.38,507.92,577.12Z" transform="translate(-17.04)"/><path class="cls-9" d="M497.93,562.87a271.27,271.27,0,0,0,24.7-25.93l15.21,12.9a289.92,289.92,0,0,1-26.43,27.75ZM512.33,573c1.74-5.63,2.52-8.46,3.95-14.11-5.58,1.58-8.36,2.28-13.9,3.51Zm7.61-30.74A227.17,227.17,0,0,1,503.06,560c5.51-1.26,8.28-2,13.84-3.59C518.27,550.77,518.88,547.94,519.94,542.29Zm12.81,11.33c-5.62,2-8.42,2.94-14,4.59-1.4,5.68-2.18,8.52-3.89,14.19A238,238,0,0,0,532.75,553.62Zm.54-2.59-11-9.55c-1,5.69-1.63,8.53-3,14.22C524.91,554,527.7,553.08,533.29,551Z" transform="translate(-17.04)"/><path class="cls-9" d="M521.7,538.05a275.07,275.07,0,0,0,21.79-29.7l16.67,10.9A295.94,295.94,0,0,1,536.84,551Zm15.55,8.25c1.1-5.92,1.57-8.88,2.36-14.79C534.2,533.9,531.5,535,526.1,537Zm4.15-32.13a228.83,228.83,0,0,1-14.9,20.29c5.37-2,8.07-3.14,13.44-5.55C540.68,523,541,520.05,541.4,514.17Zm14.09,9.64c-5.39,2.86-8.09,4.18-13.5,6.64-.76,5.94-1.22,8.92-2.29,14.87A244.45,244.45,0,0,0,555.49,523.81Zm.25-2.7-12-8.11c-.4,5.92-.68,8.88-1.38,14.82C547.69,525.34,550.38,524,555.74,521.11Z" transform="translate(-17.04)"/><path class="cls-9" d="M542.68,509.61a287.41,287.41,0,0,0,18.49-33.46l17.91,8.65a307.26,307.26,0,0,1-19.79,35.8Zm16.49,6.14c.43-6.17.57-9.25.7-15.38-5.14,3.22-7.73,4.72-12.9,7.53Zm.56-33.33a242.23,242.23,0,0,1-12.64,22.86c5.14-2.84,7.71-4.36,12.83-7.61C560,491.54,560,488.49,559.73,482.42Zm15.18,7.74c-5.08,3.73-7.64,5.48-12.77,8.77-.1,6.17-.22,9.26-.62,15.47A255.14,255.14,0,0,0,574.91,490.16Zm0-2.8-13-6.48c.26,6.11.31,9.18.27,15.33C567.27,492.89,569.82,491.12,574.86,487.36Z" transform="translate(-17.04)"/><path class="cls-9" d="M560.5,477.57a309,309,0,0,0,14.8-37.22l18.89,6.14c-4.68,13.6-9.88,26.73-15.83,39.82Zm17.2,3.8c-.26-6.38-.46-9.56-1-15.88-4.79,4.09-7.21,6-12.08,9.69ZM574.54,447a255.94,255.94,0,0,1-10.11,25.43c4.84-3.69,7.24-5.64,12-9.76C575.82,456.4,575.44,453.27,574.54,447Zm16.07,5.63c-4.67,4.63-7,6.83-11.81,11,.58,6.35.81,9.54,1.09,16C583.89,470.87,587.49,461.78,590.61,452.67Zm-.36-2.88-13.7-4.67c.94,6.26,1.33,9.41,2,15.75C583.27,456.66,585.62,454.45,590.25,449.79Z" transform="translate(-17.04)"/><path class="cls-9" d="M115.21,608.76a305.64,305.64,0,0,0,32.65,21c-4,6.93-5.93,10.4-9.87,17.33a327.4,327.4,0,0,1-34.69-22.37Zm-7,16.26c6.25.92,9.36,1.29,15.53,1.85-3-5.41-4.36-8.14-7-13.62Zm33.5,2.94a257,257,0,0,1-22.3-14.38c2.66,5.45,4.07,8.15,7,13.53C132.65,627.62,135.7,627.78,141.75,628ZM133,642.65c-3.32-5.31-4.91-8-7.92-13.39-6.19-.53-9.3-.88-15.58-1.76A269.76,269.76,0,0,0,133,642.65Zm2.77.12c2.94-5,4.41-7.52,7.34-12.54-6.07-.13-9.13-.28-15.3-.75C130.85,634.84,132.44,637.5,135.78,642.77Z" transform="translate(-17.04)"/><path class="cls-9" d="M146.51,629.05a313.23,313.23,0,0,0,34.62,16.84l-7.78,18.34a332.13,332.13,0,0,1-36.79-17.9Zm-5,16.92c6.27.13,9.38.11,15.54-.08-3.53-5-5.22-7.51-8.45-12.6Zm33.42-1.18a260.49,260.49,0,0,1-23.66-11.5c3.25,5.05,5,7.55,8.49,12.5C165.86,645.55,168.89,645.34,174.89,644.79Zm-7,15.59c-3.88-4.86-5.75-7.32-9.33-12.29-6.17.23-9.29.26-15.59.17A276.46,276.46,0,0,0,167.91,660.38Zm2.76-.21,5.83-13.29c-6,.59-9.05.81-15.2,1.09C164.9,652.91,166.77,655.35,170.67,660.17Z" transform="translate(-17.04)"/><path class="cls-9" d="M179.72,645.3a320.25,320.25,0,0,0,36.15,12.63c-2.24,7.63-3.37,11.45-5.61,19.09a340.56,340.56,0,0,1-38.42-13.42Zm-3.07,17.36c6.22-.62,9.29-1,15.36-1.92-4.06-4.53-6-6.83-9.78-11.48Zm32.92-5.1c-10-3-14.95-4.77-24.7-8.63,3.78,4.62,5.74,6.9,9.81,11.39C200.72,659.36,203.7,658.8,209.57,657.56Zm-5.13,16.27c-4.39-4.37-6.52-6.59-10.63-11.1-6.08.95-9.16,1.36-15.39,2C188.69,668.81,193.91,670.62,204.44,673.83Zm2.71-.53,4.25-13.86c-5.88,1.28-8.86,1.86-14.91,2.86C200.61,666.77,202.74,669,207.15,673.3Z" transform="translate(-17.04)"/><path class="cls-9" d="M214.4,657.51a325.2,325.2,0,0,0,37.26,8.41c-1.35,7.84-2,11.76-3.38,19.59a345.69,345.69,0,0,1-39.58-8.94Zm-1.05,17.57c6.09-1.33,9.08-2.07,15-3.67-4.54-4-6.74-6.09-11-10.27C215.75,666.72,215,669.5,213.35,675.08Zm32-8.81c-10.26-1.9-15.36-3-25.45-5.75,4.26,4.14,6.47,6.18,11,10.18C236.8,669.05,239.69,668.17,245.37,666.27ZM242.16,683c-4.86-3.84-7.22-5.81-11.81-9.81-5.91,1.63-8.91,2.39-15,3.75C226,679.8,231.35,681,242.16,683Zm2.61-.82c1.06-5.7,1.58-8.55,2.63-14.25-5.68,1.94-8.57,2.84-14.45,4.53C237.54,676.43,239.91,678.37,244.77,682.18Z" transform="translate(-17.04)"/><path class="cls-9" d="M250.15,665.67a330.64,330.64,0,0,0,37.92,4.21L287,689.72a353.83,353.83,0,0,1-40.29-4.47C248.07,677.42,248.77,673.5,250.15,665.67Zm1,17.57c5.87-2,8.76-3.07,14.43-5.31-5-3.51-7.38-5.3-12.08-9Zm30.74-12.32c-10.4-.75-15.59-1.32-25.91-2.88,4.71,3.64,7.13,5.42,12.1,8.88C273.69,674.64,276.45,673.43,281.87,670.92Zm-1.27,17c-5.26-3.28-7.83-5-12.84-8.44-5.67,2.29-8.56,3.37-14.45,5.41C264.18,686.51,269.65,687.12,280.6,687.9Zm2.5-1.11c.39-5.78.59-8.67,1-14.44-5.42,2.55-8.19,3.77-13.82,6.1C275.27,681.88,277.84,683.55,283.1,686.79Z" transform="translate(-17.04)"/><path class="cls-9" d="M286.55,669.8a332.21,332.21,0,0,0,38.13,0c.48,7.93.72,11.9,1.19,19.83a355.67,355.67,0,0,1-40.52,0Zm3,17.34c5.6-2.64,8.35-4,13.72-6.87-5.33-2.93-7.93-4.45-13-7.58Zm29.11-15.63c-10.42.41-15.64.41-26.05,0,5.09,3.1,7.69,4.6,13,7.49C310.94,676.11,313.55,674.61,318.64,671.51Zm.7,17c-5.61-2.67-8.35-4.07-13.73-7-5.37,2.9-8.12,4.3-13.72,7C302.86,689,308.36,689,319.34,688.52Zm2.35-1.38c-.27-5.78-.41-8.67-.69-14.45-5.09,3.13-7.7,4.65-13,7.58C313.35,683.13,316.09,684.5,321.69,687.14Z" transform="translate(-17.04)"/><path class="cls-9" d="M323.16,669.88a330.47,330.47,0,0,0,37.91-4.21c1.39,7.83,2.09,11.75,3.47,19.58a353.4,353.4,0,0,1-40.28,4.47Zm5,16.91c5.27-3.24,7.84-4.91,12.85-8.34-5.64-2.33-8.4-3.55-13.82-6.1C327.54,678.12,327.73,681,328.12,686.79ZM355.26,668c-10.31,1.56-15.5,2.13-25.9,2.88,5.41,2.51,8.18,3.72,13.81,6C348.14,673.46,350.56,671.68,355.26,668Zm2.65,16.83c-5.88-2-8.77-3.12-14.45-5.41-5,3.47-7.57,5.16-12.83,8.44C341.58,687.12,347.05,686.51,357.91,684.87Zm2.19-1.63L357.75,669c-4.71,3.68-7.12,5.47-12.09,9C351.33,680.17,354.22,681.24,360.1,683.24Z" transform="translate(-17.04)"/><path class="cls-9" d="M359.57,665.92a325.2,325.2,0,0,0,37.26-8.41l5.7,19.06a345.85,345.85,0,0,1-39.59,8.94C361.59,677.68,360.92,673.76,359.57,665.92Zm6.88,16.26c4.87-3.81,7.23-5.75,11.83-9.72-5.88-1.69-8.77-2.59-14.46-4.53C364.88,673.63,365.4,676.48,366.45,682.18Zm24.86-21.66c-10.09,2.7-15.19,3.85-25.45,5.75,5.67,1.9,8.56,2.78,14.43,4.43C384.84,666.7,387,664.66,391.31,660.52Zm4.57,16.42c-6.09-1.36-9.09-2.12-15-3.75-4.59,4-6.95,6-11.81,9.81C379.88,681,385.25,679.8,395.88,676.94Zm2-1.86c-1.59-5.58-2.39-8.36-4-13.94-4.26,4.18-6.46,6.24-11,10.27C388.79,673,391.79,673.75,397.87,675.08Z" transform="translate(-17.04)"/><path class="cls-9" d="M395.36,657.93a320.25,320.25,0,0,0,36.15-12.63l7.88,18.3A341.25,341.25,0,0,1,401,677C398.72,669.38,397.6,665.56,395.36,657.93Zm8.72,15.37c4.41-4.33,6.54-6.53,10.66-11-6.05-1-9-1.58-14.92-2.86C401.53,665,402.38,667.76,404.08,673.3Zm22.28-24.37c-9.75,3.86-14.7,5.59-24.7,8.63,5.87,1.24,8.85,1.8,14.89,2.76C420.62,655.83,422.58,653.55,426.36,648.93Zm6.44,15.81c-6.23-.65-9.31-1.06-15.38-2-4.11,4.51-6.24,6.73-10.64,11.1C417.32,670.62,422.54,668.81,432.8,664.74Zm1.77-2.08L429,649.26c-3.77,4.65-5.72,7-9.78,11.48C425.28,661.65,428.36,662,434.57,662.66Z" transform="translate(-17.04)"/><path class="cls-9" d="M430.09,645.89a312.51,312.51,0,0,0,34.63-16.84l9.95,17.28a333,333,0,0,1-36.79,17.9C434.77,656.89,433.21,653.22,430.09,645.89Zm10.47,14.28c3.9-4.82,5.77-7.26,9.37-12.2-6.15-.28-9.19-.5-15.21-1.09ZM460,633.29a260.32,260.32,0,0,1-23.65,11.5c6,.55,9,.76,15.17,1C455.05,640.84,456.75,638.34,460,633.29Zm8.24,15c-6.29.09-9.41.06-15.58-.17-3.58,5-5.45,7.43-9.34,12.29A275.16,275.16,0,0,0,468.23,648.26Zm1.53-2.29-7.1-12.68c-3.22,5.09-4.91,7.61-8.44,12.6C460.37,646.08,463.49,646.1,469.76,646Z" transform="translate(-17.04)"/><path class="cls-9" d="M463.37,629.81a306.65,306.65,0,0,0,32.65-21l11.91,16a327.4,327.4,0,0,1-34.69,22.37Zm12.08,13c3.34-5.27,4.93-7.93,8-13.29-6.17.47-9.24.62-15.31.76Zm16.33-29.19A257.17,257.17,0,0,1,469.47,628c6.06-.18,9.11-.34,15.26-.85C487.71,621.73,489.12,619,491.78,613.58Zm9.94,13.92c-6.28.88-9.4,1.23-15.59,1.76-3,5.4-4.59,8.08-7.91,13.39A269.76,269.76,0,0,0,501.72,627.5ZM503,625l-8.53-11.77c-2.65,5.48-4,8.21-7,13.62C493.62,626.31,496.73,625.94,503,625Z" transform="translate(-17.04)"/></g></g></svg>